<?xml version="1.0" encoding="utf-8"?>
<!-- Generator: Adobe Illustrator 21.1.0, SVG Export Plug-In . SVG Version: 6.00 Build 0)  -->
<svg version="1.1" id="Layer_1" xmlns="http://www.w3.org/2000/svg" xmlns:xlink="http://www.w3.org/1999/xlink" x="0px" y="0px"
	 viewBox="0 0 380 250" style="enable-background:new 0 0 380 250;" xml:space="preserve" preserveAspectRatio="xMinYMax">
<style type="text/css">
	.st0{clip-path:url(#SVGID_2_);}
	.st1{fill:#F5A624;}
	.st2{fill:#FDDC4F;}
	.st3{fill:#FFC500;}
	.st4{fill:none;}
	.st5{fill:none;stroke:#F5A624;stroke-miterlimit:10;}
	.st6{fill:#0295EC;}
	.st7{fill:#153456;}
	.st8{fill:#06D8B4;}
</style>
<title>investor</title>
<g>
	<g>
		<g>
			<defs>
				<rect id="SVGID_1_" width="380" height="250"/>
			</defs>
			<clipPath id="SVGID_2_">
				<use xlink:href="#SVGID_1_"  style="overflow:visible;"/>
			</clipPath>
			<g class="st0">
				<polygon class="st1" points="360.8,254.6 688.2,136 380.5,24.5 53.1,143.1 				"/>
				<polygon class="st2" points="222.9,365.7 528.6,254.6 220.9,143.1 -84.7,254.2 				"/>
				<path class="st3" d="M316.6,209.3L227.4,242c-1.8,0.7-3.9,0.7-5.7,0L89.1,192c-1.1-0.5-1.6-1.7-1.2-2.8c0.2-0.5,0.6-1,1.2-1.2
					l91.3-33.5c0.4-0.2,1-0.2,1.4,0l14.7,5.3l12.8,4.6l0.4,0.2l14.6,5.3l92.3,35.5c1.1,0.4,1.6,1.6,1.2,2.7
					C317.6,208.6,317.1,209.1,316.6,209.3z"/>
				<polygon class="st1" points="170,162.1 170,109.3 -24.9,179.9 -24.9,232.7 				"/>
				<polygon class="st3" points="135.7,123.6 135.7,69.6 -171.9,181.1 -171.9,235.1 				"/>
				<polygon class="st2" points="-171.9,181.1 135.7,69.6 -171.9,-41.8 -479.6,69.6 				"/>

					<ellipse transform="matrix(0.2113 -0.9774 0.9774 0.2113 79.7785 315.2332)" class="st3" cx="235.2" cy="108.2" rx="2.2" ry="1.4"/>
				<line class="st4" x1="157" y1="118.4" x2="146.4" y2="90.8"/>
				<path class="st2" d="M262.4,35.7V79c0,1.4-1.2,2.1-2.6,1.6l-3.3-1.1l-5.8-2.1l-2.7-1l-3.6-1.3l-17-6.1l-1.6-0.6l-2.9-1l-2.8-1
					l-4.2-1.5c-1.5-0.6-2.5-1.9-2.7-3.5V17.7c0-1.4,1.2-2.1,2.7-1.5l43.9,16C261.3,32.8,262.3,34.1,262.4,35.7z"/>
				<path class="st2" d="M215.9,120.6c-1.5-0.6-2.5-1.9-2.7-3.5V73.4c0-1.4,1.2-2.1,2.7-1.5l43.9,16c1.4,0.5,2.4,1.9,2.6,3.4V135
					c0,1.4-1.2,2.1-2.6,1.6L215.9,120.6z"/>
				<path class="st3" d="M256.7,78.4c-0.1,0.3-0.2,0.6-0.2,0.9l-5.8-2.1l-2.7-1l-3.6-1.3l-17-6l-1.6-0.6l-2.9-1l-2.8-1
					c0.4-2.9,1.1-5.8,1.9-8.7c1-3,3.5-5.3,6.6-6c1.2-0.2,2.3-0.6,3.3-1.3l0.1-0.1c0.1,0,0.1,0,0.1-0.1l0,0c0.9-0.6,3.1-0.6,5.3-0.5
					l0,0c2.9,0.2,5.7,0.6,5.7,0.6l0.4,0.2c2,1,11.2,5.4,12.4,6.7c0.3,0.3,0.8,5.8,1.4,10.1C257.9,71,257.6,74.8,256.7,78.4z"/>
				<polygon class="st3" points="242.7,43.8 243.8,52.9 234.6,56 232.1,53.9 231.8,48.4 				"/>
				<path class="st3" d="M229.6,34.7c0,0-1.2,11.6,0.5,13.1c1.1,0.9,2.6,1.2,4,0.9l8.8-3.7l1.4-3.2l-1-6.1l-6-1.5L229.6,34.7z"/>
				<polygon class="st1" points="243.8,51.2 245,55.1 236.8,59.9 234.6,56 232.5,59.4 229.2,53.9 232.1,52.1 234.6,55.6 				"/>
				<path class="st1" d="M239.3,36.4c0,0,0.7,10.4-5.5,11.5c0,0,0.1-2.3-0.7-2.3s-3.3-1.3-3.6,0.5s-1,4.2,0.7,4.3s7.1,1,10.1-2
					c0,0-1-4.2,0-5.3s2.2-2.9,2.2-1.7s-1.7,3.5-0.4,3.5s3.7-3,3.7-6.3s-4.1-8.5-7.2-8.5s-5.5-0.2-7.9,2.1s-1.1,3.7,0.5,4.3
					C234.8,37.8,239.3,36.4,239.3,36.4z"/>
				<path class="st1" d="M234,30.3c0,0-7.2-0.2-5.7,3.3c1.1,2.6,0.8,2.2,2.3,2.6C232.1,36.8,234,30.3,234,30.3z"/>
				<path class="st1" d="M248,117.1L248,117.1c0,0.2,0,0.5-0.1,0.6c-0.3,2.5-2.1,5.2-3.5,6.9c-0.3,0.4-0.6,0.7-0.9,1
					c-0.7,0.8-1.1,1.8-1.1,2.9c-0.1,0.5-0.1,1-0.2,1.4l-0.2-0.1l-0.7-0.2l-1.8-0.6l-0.5-0.2l-8.8-3.1l-1.5-0.6l-1.5-0.6l-0.7-0.2
					l-0.9-0.3l-2.1-0.7c-0.4-0.9-0.8-1.7-1.4-2.5c-1.8-2.2,2.9-6.7,2.9-10.4s4.1-3.5,4.1-3.5c1.5,0,2.8,0,4,0.1
					c1.7,0.1,3.4,0.3,5,0.6c1,0.2,1.8,0.5,2.5,0.7c1.7,0.8,3.2,2,4.4,3.5c0.5,0.6,1,1.1,1.5,1.7C247.5,114.5,248,115.8,248,117.1z"
					/>
				<polygon class="st1" points="251.5,133.2 251.5,133.2 250.7,132.9 248.1,132 246.3,131.4 245.7,131.2 244.4,130.7 243.4,130.4
					242.3,130 242,129.9 241.3,129.7 239.6,129 242.4,128.5 245.4,128 250.2,127.2 253.3,126.6 255.3,134.5 				"/>
				<path class="st3" d="M251.5,133.2l-0.8-0.2l-2.7-1l-1.8-0.6l-0.9-3.3l-1-3.4l-1.9-6.9l-0.2-0.7l5.3-0.2c0.1,0.2,0.1,0.3,0.2,0.5
					c0,0.2,0.1,0.2,0.1,0.4c0.5,1.7,1.4,5.5,2.3,9.4C250.7,129.2,251.1,131.2,251.5,133.2z"/>
				<path class="st3" d="M229.2,88v14.5c0,2.2,9.5,3.5,12-2.3v-6.5L229.2,88z"/>
				<path class="st1" d="M228.3,88.6c-0.6,2.5-0.3,4.5,0.9,5.3v-3c1.5,2.3,5.7,2.5,9.3,2.4c2.1-0.1,0.4,3.1,1,3.6
					c2.1,1.7,0.4,4.9,0.4,4.9c2.1-0.8,4-2.9,4.4-9c0.3-4.6-1-6.4-5.7-8.2C235.8,83.5,229.3,84.8,228.3,88.6z"/>
				<path class="st3" d="M234.7,109.5L234.7,109.5c-1-0.3-1.7-1.3-1.5-2.4c0.4-1.7,0.5-3.5,0.3-5.2l3.6,0.3c0.2,1.7,0.5,3.4,1,5
					C238.7,108.9,236.4,110.2,234.7,109.5z"/>
				<path class="st3" d="M248,117.1c0,0-1.2,2.5-5.7,0.6s0-3.1,0-3.1S247.7,114.5,248,117.1z"/>
				<path class="st1" d="M237.9,93.2c0.2,1.6,1.3,2.9,2.3,4.6c1.1,1.6,1.6,3.5,1.7,5.5c-0.1,2.5-1.8,4.8-1.5,7.3
					c0.2,1.9,1.3,1.8,3.3,3.1c-0.3-4.2,4.2-5.3,6.2-9.1c3.3-6.2,3.8-14.7-10.5-14c-0.3,0-0.7,0.1-1,0.2c-0.2,0.2-0.3,0.4-0.4,0.6
					C237.9,92,237.9,92.6,237.9,93.2z"/>
				<path class="st2" d="M280.7,144.2l78.4,28.4c2.6,1,4.7-0.3,4.7-2.8V74.4c0-2.5-2.2-5.3-4.7-6.2l-78.4-28.5
					c-2.6-1-4.8,0.2-4.8,2.7V138C275.9,140.5,278.1,143.3,280.7,144.2z"/>
				<path class="st3" d="M284.3,106l69.9,25.3c1.3,0.5,2.3,1.7,2.4,3.1v25.1c0,1.2-1,1.8-2.4,1.4l-69.9-25.3
					c-1.4-0.4-2.3-1.7-2.4-3.1v-25.1C281.9,106.1,283,105.5,284.3,106z"/>
				<path class="st1" d="M284.3,79.4l69.9,25.3c1.3,0.5,2.3,1.7,2.4,3.1v15.1c0,1.2-1,1.8-2.4,1.4l-69.9-25.4
					c-1.4-0.4-2.3-1.7-2.4-3.1v-15C281.9,79.5,283,78.9,284.3,79.4z"/>
				<path class="st3" d="M339.4,109.1c0-3.3,2.8-4.9,6.3-3.7s6.3,4.9,6.3,8.1s-2.8,4.9-6.3,3.7S339.4,112.3,339.4,109.1z"/>
				<polygon class="st2" points="290.3,88 333.9,103.9 333.9,105.7 290.3,89.9 				"/>
				<polygon class="st2" points="302.4,96.7 333.9,108.2 333.9,110 302.4,98.5 				"/>
				<path class="st3" d="M284.3,52.8l69.9,25.3c1.3,0.5,2.3,1.7,2.4,3.1v15.1c0,1.2-1,1.8-2.4,1.4l-69.9-25.3
					c-1.4-0.4-2.3-1.7-2.4-3.1v-15C281.9,53,283,52.4,284.3,52.8z"/>
				<path class="st1" d="M339.4,82.6c0-3.3,2.8-4.9,6.3-3.7s6.3,4.9,6.3,8.1s-2.8,4.9-6.3,3.7S339.4,85.8,339.4,82.6z"/>
				<polygon class="st2" points="290.3,61.4 333.9,77.3 333.9,79.2 290.3,63.4 				"/>
				<polygon class="st2" points="302.4,70.1 333.9,81.7 333.9,83.5 302.4,72 				"/>
				<polyline class="st5" points="286.1,130.7 294.1,127.7 300.7,133.4 310.6,128.2 315.6,137.5 325.6,134.2 329.1,146.7
					349.8,136.4 				"/>
				<path class="st1" d="M284.9,130.2c0-1,0.8-1.4,1.8-1.1c1,0.4,1.7,1.3,1.8,2.4c0,1-0.8,1.4-1.8,1.1
					C285.7,132.2,285,131.3,284.9,130.2z"/>
				<path class="st1" d="M292.2,127.1c0-1,0.8-1.4,1.8-1.1c1,0.4,1.7,1.3,1.8,2.4c0,1-0.8,1.4-1.8,1.1
					C293,129.1,292.3,128.1,292.2,127.1z"/>
				<path class="st1" d="M298.7,132.6c0-1,0.8-1.4,1.8-1.1c1,0.4,1.7,1.3,1.8,2.4c0,1-0.8,1.4-1.8,1.1
					C299.5,134.7,298.8,133.7,298.7,132.6z"/>
				<path class="st1" d="M327.4,146.1c0-1,0.8-1.4,1.8-1.1c1,0.4,1.7,1.3,1.8,2.4c0,1-0.8,1.4-1.8,1.1
					C328.2,148.1,327.5,147.2,327.4,146.1z"/>
				<path class="st1" d="M347.6,135.8c0-1,0.8-1.4,1.8-1.1c1,0.4,1.7,1.3,1.8,2.4c0,1-0.8,1.4-1.8,1.1
					C348.4,137.7,347.7,136.8,347.6,135.8z"/>
				<path class="st1" d="M308.8,127.4c0-1,0.8-1.4,1.8-1.1c1,0.4,1.7,1.3,1.8,2.4c0,1-0.8,1.4-1.8,1.1
					C309.6,129.4,308.9,128.5,308.8,127.4z"/>
				<path class="st1" d="M323.7,133.9c0-1,0.8-1.4,1.8-1.1c1,0.4,1.7,1.3,1.8,2.4c0,1-0.8,1.4-1.8,1.1
					C324.5,135.9,323.8,135,323.7,133.9z"/>
				<g>
					<g>
						<path class="st6" d="M184.7,75.5c0,0,11.4,23.9,11.3,28.2c-0.1,4.3-12.5,15.9-12.5,15.9l-2.6-2.6l8.8-14.1L177.2,77
							L184.7,75.5z"/>
						<g>
							<path class="st6" d="M176.4,193.4c0,0-8.7,0-7.2-9l-4.1,1.5l1.8,11.3l5.8-1L176.4,193.4z"/>
							<path d="M166.3,185.9c0,0,1.6,8.3,3.8,9s7.7-2.3,8.7-1.3c0,0-0.7,6.3-7.7,6.3c0,0-4.4-1.5-5.8-2.9s0,5.1,0,5.1h-2.5
								c0.9-0.7,0.3-15.3,0-16.5C162.3,183.5,166.3,185.9,166.3,185.9z"/>
						</g>
						<path class="st6" d="M187.1,196.8c0,0-8.7,0-7.2-9l-4.1,1.5l1.8,11.3l5.8-1L187.1,196.8z"/>
						<path class="st2" d="M162.2,140.1c0,0,0.8,3.9,0.8,6s-3.9,16.6-1.8,29.4L163,186l6.7-1c0,0-0.2-40.2,2.7-43L162.2,140.1z"/>
						<path class="st2" d="M183.4,140.1c0,0-4.9,41.1-3.5,47.7c0,0-5.7,3-7.5,1.2c0,0-2.3-43.6,2.5-50L183.4,140.1z"/>
						<path d="M175.8,189.3c0,0,1.6,8.3,3.8,9s7.7-2.3,8.7-1.3c0,0-0.7,6.3-7.7,6.3c0,0-4.4-1.5-5.8-2.9c-1.4-1.4,0,5.1,0,5.1h-2.5
							c0,0-0.7-14.5,0-16.5C173.1,186.9,175.8,189.3,175.8,189.3z"/>
						<path class="st2" d="M184.5,112.6c0,0,1.5,28.8-2.6,28.8s-17.4,2.3-22.1-2.3c0,0-2.1-27.1,2.4-36.4c0,0-6.3-18.6-2.8-32
							c0,0,7-6.4,18.4,0c0,0,8.8,2,8.8,10.2"/>
						<path d="M181,103.5c0,0-15.7,0.6-18.6-2.3c0,0-2,4.9-2,7.2c0,0,10,3.5,23,0L181,103.5z"/>
						<path class="st6" d="M180.1,55.5c0,0,1.5,10.3-1.2,11.5c-2.6,1.2-8.4-0.1-7.4-5S180.1,55.5,180.1,55.5z"/>
						<path class="st7" d="M182.2,71.3l-17.4-3.8c-3-0.6-6,1-7.1,3.8c-5.8,15-14.8,55.7-14.5,58.8c0.1,1.3,2.9,2.6,6.9,3.7
							c3.1,0.9,6.4-0.7,7.6-3.8c1.7-4.7,4.2-11.2,4.8-12.3c0.2-0.4,0.2,0.2,0.2,0.2l-1.4,12.1c-0.4,3.6,2.4,6.8,6,6.8
							c8.7,0.2,18.4-0.7,18.4-3.1c-0.1-6.2,1.9-43.2,1.6-56.8C187,74.3,185,71.9,182.2,71.3z"/>
						<path class="st8" d="M172.7,45c-4-1.4-10.8,1.2-12.1,5c-1.6,4.7-1.6,10.5,1.9,14.4c1.7,2,4,2.9,6.5,3.6
							c1.1,0.3,2.7,0.8,3.8,0.5c0.8-0.2,2.4-1.7,2.8-1.7c-6.7,0,5.2-9.3,5.4-10.7C181.5,51.3,178.5,47.1,172.7,45z"/>
						<path class="st8" d="M163.2,51.4c0,2-1.7,3.7-3.7,3.7c-2.1,0-3.7-1.7-3.7-3.7s1.7-3.7,3.7-3.7S163.2,49.4,163.2,51.4z"/>
					</g>
				</g>
			</g>
		</g>
	</g>
</g>
</svg>
