<?xml version="1.0" encoding="utf-8"?>
<!-- Generator: Adobe Illustrator 21.1.0, SVG Export Plug-In . SVG Version: 6.00 Build 0)  -->
<svg version="1.1" id="Layer_1" xmlns="http://www.w3.org/2000/svg" xmlns:xlink="http://www.w3.org/1999/xlink" x="0px" y="0px"
	 viewBox="0 0 380 250" style="enable-background:new 0 0 380 250;" xml:space="preserve" preserveAspectRatio="xMinYMax">
<style type="text/css">
	.st0{clip-path:url(#SVGID_2_);}
	.st1{fill:#402C89;}
	.st2{fill:#4F3199;}
	.st3{fill:#634FC6;}
	.st4{opacity:5.000000e-02;}
	.st5{fill:#282828;}
	.st6{fill:#DDBA2A;}
	.st7{fill:#EFC825;}
	.st8{fill:#FDDC4F;}
	.st9{fill:#FFFFFF;}
	.st10{fill:#00EABD;}
	.st11{fill:#153456;}
	.st12{fill:#0D6C9B;}
	.st13{fill:#163658;}
	.st14{fill:#8B5E3C;}
	.st15{fill:#754C29;}
	.st16{fill:#E8C536;}
	.st17{fill:#0D273F;}
</style>
<title>public</title>
<g>
	<defs>
		<rect id="SVGID_1_" width="380" height="250"/>
	</defs>
	<clipPath id="SVGID_2_">
		<use xlink:href="#SVGID_1_"  style="overflow:visible;"/>
	</clipPath>
	<g class="st0">
		<polygon class="st1" points="379.7,313.6 379.7,282.4 202,218.1 202,249.3 		"/>
		<polygon class="st2" points="557.3,249.3 557.3,218.1 379.7,282.4 379.7,313.6 		"/>
		<polygon class="st3" points="379.7,282.4 557.3,218.1 379.7,153.7 202,218.1 		"/>
		<polygon class="st2" points="177.2,115.7 177.2,84.6 -0.4,148.9 -0.4,180.1 		"/>
		<polygon class="st3" points="-0.4,148.9 177.2,84.6 -0.5,20.2 -178.1,84.6 		"/>
	</g>
</g>
<g class="st4">
	<path class="st5" d="M196,148.5c-1.4,0.2-2.8,0.2-4.1,0.1c-1.7-0.2-3.3-0.8-4.8-1.6c-0.2-0.1-0.4-0.2-0.5-0.3l0.6,0.2
		c0.5-0.9,1.3-1.6,2.1-2.1c0.7-0.4,5.1,2.7,5.1,2.7S195,147.8,196,148.5z"/>
</g>
<polygon class="st1" points="238.7,157.9 238.7,148 182.4,127.6 182.4,137.5 "/>
<polygon class="st2" points="295,137.5 295,127.6 238.7,148 238.7,157.9 "/>
<polygon class="st3" points="238.7,148 295,127.6 238.7,107.2 182.4,127.6 "/>
<polygon class="st6" points="182.5,197.6 182.5,187.7 126.2,167.3 126.2,177.2 "/>
<polygon class="st7" points="238.8,177.2 238.8,167.3 182.5,187.7 182.5,197.6 "/>
<polygon class="st8" points="182.5,187.7 238.8,167.3 182.5,146.9 126.2,167.3 "/>
<polygon class="st1" points="127.3,236.9 127.3,227.1 71,206.7 71,216.6 "/>
<polygon class="st2" points="183.6,216.6 183.6,206.7 127.3,227.1 127.3,236.9 "/>
<polygon class="st3" points="127.3,227.1 183.6,206.7 127.3,186.3 71,206.7 "/>
<g class="st4">
	<path class="st5" d="M187.4,148.6c-4.2,3.5-27,16.6-28.6,17.7c-0.6,0.4-1,0.7-1,0.7c-3.3,0.9-5-2.9-5.5-4.2
		c-0.1-0.3-0.1-0.4-0.1-0.4c2.2-2.9,4.9-5.4,7.9-7.4l22.5-8.1L187.4,148.6z"/>
</g>
<path class="st9" d="M150.4,160.4c0,0,8.5,2,9.5,3.7s-2.1,4.4-6.6,4.4s-7.1,0.4-9.2-0.1s-4.9-2.1-4.1-4.2s2.3-4.4,3.3-4.9
	S150.4,160.4,150.4,160.4z"/>
<path class="st9" d="M196.6,147.4c0,0,8.3-2.6,10.1-1.7s0.4,4.8-3.4,7.2s-5.9,3.9-8,4.5s-5.2,0.7-5.7-1.6s-0.3-4.9,0.3-5.9
	S196.6,147.4,196.6,147.4z"/>
<path class="st10" d="M186.2,103.7c-0.4-0.5-4.3-3.5-4.3-3.5L171.4,88c-0.7-0.7-1.4-1.3-2.3-1.7c-1.8-5.2-6.8-13.7-6.8-13.7
	s-6.2-1.3-5.4,5c0,0,4.2,8.8,6,12.5l0,0l0.2,0.4c0.2,0.5,0.4,0.8,0.5,1c0.1,0.1,0.1,0.2,0.2,0.3l0,0h0.1l0.2,0.2h0.1l0,0
	c3.5,3.1,15,10.7,15.3,11.2c0,0,0.4,1.9,1.2,2.3s1.6,0.3,1.9,0.7s1,2.4,1.4,2.8s3.2,1.6,3.7,0.7c0,0-0.1-2.1-0.1-2.6
	C187.2,105.9,186.8,104.8,186.2,103.7z"/>
<path class="st11" d="M167.1,79.7c-1.8-3.2-4.4-7.5-5.6-8.7c-2-2-7.9-1-6.5,5.3c0.7,3.2,3.2,7.1,5.7,10.2
	C160.7,86.5,167.6,84.4,167.1,79.7z"/>
<path class="st12" d="M177.7,109.5c0,0,9.5,6.8,10.3,11.2s11.2,25.8,11.2,25.8c-2.8,3.5-6.5,6-10.7,7.4c0,0-8.5-18.4-8.5-23.1
	s-12.1-14.6-12.1-14.6s-12.6-4.9-14.2-11.5C153.7,104.8,170.5,100.7,177.7,109.5z"/>
<path class="st12" d="M153.3,104.7c0,0-5.5,13-4.9,23.8c0,0,0.2,7.6-3.7,13.2c-3.1,6.8-4.8,14.1-4.9,21.5c0,0,5.4,2.6,8.5-1.7
	c0,0,2.2-6.8,4-9.5c0.5-0.7,0.9-1.5,1.2-2.4c1.6-4.1,5.7-14.4,6.1-18.2c0.5-4.8,5.9-16.5,5.9-16.5c1.1-2.9,1.7-5.9,1.9-9
	L153.3,104.7z"/>
<path class="st13" d="M157.8,55.2c0,0-6.1-1.3-7.5,8.1s1.9,15.2,1.9,18.1s3.9,17.3-1.3,22.5c0,0,14.6,18.8,29.7,5.8
	c0,0-1.4-11.7,0.1-17.5c0,0,6.1-14.9,0-23.2C180.7,69,174,57.5,157.8,55.2z"/>
<polygon class="st6" points="156.9,120 155.8,122.4 151.9,131.2 148.8,138.3 149,138.7 151.9,142.7 155.6,134.6 159.8,125.2
	159.8,125.1 160.4,123.9 160.4,123.9 160,123.5 160,123.4 158.3,121.6 157.2,120.3 157.2,120.3 "/>
<polygon class="st14" points="162,134.2 171.4,133.8 173.8,133.6 "/>
<path class="st10" d="M168.8,116.5c0.2,0.6,0.8,1.7,1,2.2c1.9,0.3,3.8,0.4,5.7,0.4c0.4-0.4,0.7-0.9,1-1.4c-2.2,0.1-4.4-0.3-6.4-1.2
	c0,0,0,0-0.1,0C169.6,116.4,169.2,116.7,168.8,116.5L168.8,116.5z"/>
<path class="st10" d="M177.4,114.4c-1.4,0.2-2.9,0-4.2-0.7c-0.3-0.1-0.5-0.3-0.7-0.5c-0.1,0-0.1,0-0.1,0l0,0
	c-0.3-0.2-0.6-0.5-0.8-0.8h-0.1c-0.3,0.5-0.5,1.1-0.6,1.7c0,0.2,0,0.3,0,0.5c0,0.1,0,0.2,0,0.3v0.1c0,0.1,0,0.1,0,0.2
	c0.1,0.5-0.2,1-0.7,1.1c0,0,0,0-0.1,0c0.2,0,0.4,0.2,0.5,0.2s0.3,0.1,0.4,0.2s0.4,0.2,0.7,0.2c0.2,0,0.4,0.1,0.6,0.2l0,0
	c0.2,0.1,0.3,0.1,0.5,0.1l0.6,0.2c1,0.2,2,0.3,3.1,0.2c0-0.1,0.1-0.1,0.1-0.2c0.4-0.7,0.7-1.4,0.8-2.2L177.4,114.4L177.4,114.4z"/>
<path class="st15" d="M166.7,121.1L166.7,121.1c-0.1,0.4-0.3,0.6-0.7,0.6s-0.8,0-1-0.3L166.7,121.1z"/>
<polygon class="st8" points="156.9,119.8 156.9,120 157.2,120.3 157.2,120.3 158.3,121.6 160,123.4 160,123.5 160.4,123.9
	160.4,123.9 162.6,123.8 175.1,123.2 184.2,122.9 180.8,119.1 "/>
<polygon class="st15" points="173.8,133.6 171.4,133.8 162,134.2 "/>
<polygon class="st7" points="184.2,122.9 175.1,123.2 162.6,123.8 160.4,123.9 160.4,123.9 159.8,125.1 159.8,125.2 155.6,134.6
	151.9,142.7 152,142.8 152,142.8 155.3,142.5 157.2,142.3 160.3,142.1 168.8,141.3 176,140.6 176.3,140.6 179.5,133.3 "/>
<path class="st16" d="M165.5,119.6c-0.1,0.4-0.3,0.8-0.5,1.2v0.6c0.1,0.3,0.6,0.3,1,0.3s0.6-0.2,0.8-0.6h-0.1
	c0.1-0.3,0.4-0.8,0.7-1.6c0.5-1.1,1.1-2.4,1.4-3l0,0c0.4,0.3,0.8,0,1.2-0.1c0.1,0,0.1,0,0.1,0c0.5-0.1,0.8-0.6,0.7-1
	c0-0.1,0-0.1-0.1-0.2l0.1-0.1c0-0.1,0-0.2-0.1-0.3h-0.1C167.2,114.2,166.5,116.8,165.5,119.6z"/>
<path class="st16" d="M177.2,121.3c0.3-0.5,0.6-1.3,0.9-2.1c0.7-1.6,1.1-3.3-0.2-4c-0.2-0.1-0.4-0.2-0.6-0.2
	c-0.1,0.9-0.4,1.7-0.8,2.4c0.1,0,0.2,0,0.3,0.1s0.1,0.6,0,1.1l0,0c0,0.2-0.1,0.4-0.2,0.6c-0.1,0.4-0.3,0.8-0.4,1.1s-0.2,0.6-0.3,0.8
	C176,121.8,176.8,121.7,177.2,121.3L177.2,121.3z"/>
<path class="st10" d="M175.4,48.3c0.4,1-0.6,6-1.1,6.9S170,56,170,56v3.3c-1.2,0.4-2.5,0.5-3.8,0.3c-2.5-0.3-5.1-2-5.1-2.5
	s0-2.9,0-2.9l-0.8-1.5c-1.4-2.5-2.6-5.1-3.6-7.7c-0.6-2.2,1.6-5,1.6-5c0-0.9,0.3-1.7,0.7-2.5c0.8-1.5,7.1-3,11.8-1.5
	c2.1,2.4,3,3.6,3,3.6c0.5,0.9,0.9,1.9,1.2,2.8L175.4,48.3z"/>
<path d="M173.9,35.5v3.3c0,0.3-0.1,0.6-0.3,0.8c-0.7,0.7-1.4,1.3-2,2.1c-0.2,0.2-0.3,0.4-0.4,0.6c0.2,1.2,0.4,2.5,0.4,3.7
	c-0.1,0.8-1.2,1.9-1.1,2.5c0.1,0.8,0.1,1.6,0,2.4v0.7h-0.8c0-0.2,0-0.5-0.1-0.7c-0.1-0.6-0.3-1.5-0.7-1.7c-0.2-0.1-0.5,0.3-0.8,0.7
	c-0.6,0.9-1.1,2.3-1.5,2.7c-0.6,0.7-5.9,1.6-5.9,1.6l-0.8-1.5c-1.4-2.5-2.6-5-3.6-7.7c-0.6-2.2,1.6-5,1.6-5c0-0.9,0.3-1.7,0.7-2.5
	c0.6-1.1,4.7-2.3,8.8-2.1L173.9,35.5L173.9,35.5z"/>
<path d="M171.6,46c-0.1,0.8-1.2,1.9-1.1,2.5c0.1,0.8,0.1,1.6,0,2.4h-0.4c-0.2,0-0.3,0-0.5,0c-0.1-0.6-0.2-1.5-0.7-1.7
	c-0.2-0.1-0.5,0.3-0.8,0.7c-0.3-0.4-0.5-0.9-0.5-1.5V44c0-1.3,1.1-2.4,2.4-2.4c0,0,0,0,0,0h0.6c0.3,0,0.6,0,0.8,0.2
	c-0.2,0.2-0.3,0.4-0.4,0.6C171.4,43.6,171.6,44.8,171.6,46z"/>
<path class="st17" d="M181.4,70c0,0-5.3-3.3-6.7,7.2s-3.4,25.8-3.5,26.6S170,115,170,115s6.1,2.4,8.1-0.5c0,0,2.4-19.9,2.1-21.4
	S185.9,77.9,181.4,70z"/>
</svg>
