<?xml version="1.0" encoding="utf-8"?>
<!-- Generator: Adobe Illustrator 21.1.0, SVG Export Plug-In . SVG Version: 6.00 Build 0)  -->
<svg version="1.1" id="Layer_1" xmlns="http://www.w3.org/2000/svg" xmlns:xlink="http://www.w3.org/1999/xlink" x="0px" y="0px"
	 viewBox="0 0 380 251.1" style="enable-background:new 0 0 380 251.1;" xml:space="preserve" preserveAspectRatio="xMinYMax">
<style type="text/css">
	.st0{fill:#DD444D;}
	.st1{opacity:5.000000e-02;fill:#171818;enable-background:new    ;}
	.st2{fill:#DD686F;}
	.st3{fill:#B71031;}
	.st4{fill:#00619D;}
	.st5{fill:#FFFFFF;}
	.st6{fill:#153456;}
	.st7{fill:#FFFDFD;}
	.st8{fill:#0084C6;}
	.st9{fill:#171818;}
	.st10{fill:#F5A624;}
	.st11{fill:#02D8B4;}
	.st12{fill:#010101;}
	.st13{fill:#F9757C;}
	.st14{fill:#DD434B;}
	.st15{fill:#B70F2F;}
	.st16{fill:#45EDCC;}
	.st17{fill:#00AD8C;}
	.st18{fill:#E94E63;}
	.st19{fill:#5DB4E6;}
</style>
<polygon class="st0" points="380,251.1 0,251.1 0,83.7 75.7,111.2 380,0 "/>
<title>datfoundersimageforhomepage</title>
<polygon class="st0" points="380,0 380,77.1 75.7,187.3 75.7,111.2 "/>
<polygon class="st0" points="228.6,202.7 143.6,233.5 75.7,208.8 75.7,184.6 92.9,178.4 102.6,174.9 127.7,165.8 132.6,167.6
	144.6,171.9 "/>
<path class="st1" d="M92.9,178.4l9.6-3.5l-0.5,0.4l-0.5,0.4l0,0l0,0c-2.4,1.8-6.9,4.5-7.8,4.4C93.2,180,92.9,179.4,92.9,178.4z"/>
<path class="st1" d="M144.6,171.9c-7.9,3.7-17.8,8.9-17.8,8.9c-0.3-0.1-0.7-0.3-1-0.4c-0.5,0.3-1,0.6-1.5,1
	c-1.4,1.1-2.4,4.2-3.3,7.3c-2.2-1.8-4.3-3.5-6.4-5.4c0-0.1,0.1-0.3,0.1-0.4c0.2-1.6-0.4-2.6,0.3-3.2c0.2-0.2,0.9-0.7,1.8-1.4
	c1.5-1.1,3.6-2.6,5.7-4c0-0.1,0-0.2,0-0.3l10.1-6.5L144.6,171.9z"/>
<polygon class="st2" points="228.6,202.7 329.4,166.1 329.4,92.7 127.7,165.8 "/>
<polygon class="st0" points="0,236.2 0,162.8 75.7,135.4 75.7,208.8 "/>
<polygon class="st2" points="380,147.9 380,251.1 0,251.1 0,181.5 143.6,233.5 "/>
<polygon class="st3" points="0,212 0,138.6 75.7,111.2 75.7,184.6 "/>
<polygon class="st4" points="0,212 0,138.6 0,138.6 0,212 "/>
<polygon class="st2" points="0,138.6 0,138.6 0,83.7 75.7,111.2 "/>
<polygon class="st0" points="290.2,241.9 290.2,154.8 200.4,122.3 200.4,209.4 "/>
<polygon class="st2" points="290.2,154.8 380,122.3 380,57.2 200.4,122.3 "/>
<polygon class="st3" points="380,209.4 380,122.3 290.2,154.8 290.2,241.9 "/>
<path class="st5" d="M112.5,65.3c3.5-1,4.6,2.4,5.9,7.7l1.8,7.4l9.1,8.2c0.7-0.1,1.3-0.1,2,0c1,0.2,3.2,1.2,3.2,1.8s-2-0.3-2.2,0.1
	s1.5,2.2,1.9,2.5s1.6,0.2,1.7,0.7s-0.5,1-2.5,1c-1.4,0.1-2.8-0.2-4.1-0.8c-1-0.6-3-3.5-3-3.5s-10.5-5-11.1-6.3s-2.8-8-3.8-11.9
	S110.7,65.8,112.5,65.3z"/>
<path class="st6" d="M119.3,75.1c0.7,2.3-5.3,3.7-6.8,2.8c0,0-2.1-7.8-2.8-10.6s0.6-5.2,2.7-5.2s3.8,1.8,4.7,4.7
	S119.3,75.1,119.3,75.1z"/>
<path class="st7" d="M116.8,75.9c0.5,2.5,0.9,5.2,1.2,7.2c0,0.2,0,0.4,0.1,0.6l0,0c0.1,0.9,0.2,1.6,0.2,2c0,0.1,0,0.2-0.1,0.3
	c-0.6,2.3-7.5,11.3-7.5,11.3s-0.5,3.9-1.2,4.9s-1.6,1.8-3.5,2.8s-2.8,0.9-2.9,0.3s1.1-1,1.3-1.5s0.9-3.1,0.6-3.4s-2,1.6-2.2,1
	s1.3-2.7,2.2-3.4c0.6-0.4,1.3-0.8,2-1l4.3-11.6l0.4-1c0,0-0.1-0.3-0.2-0.8l0,0v-0.1c-0.1-0.4-0.2-1-0.4-1.8l0,0l-1.8-7.3l0,0
	c-0.4-1.6-0.6-3.3-0.6-4.9l3.5,2C112.4,71.5,114.9,73.9,116.8,75.9z"/>
<path class="st6" d="M118.7,83.1l0.2-0.1c0,0,0,0.1,0,0.1c-0.1,0.3-0.1,0.5-0.1,0.6l0,0c0,0,0,0.1,0,0.1l-2.2,0.5
	c-1.5,0.2-3,0-4.3-0.7l0,0l-0.2-0.1l0,0c0,0-0.1-0.7-0.2-1.7l0,0l-1.8-7.4l0,0c-0.9-2.8-2-5.8-2-5.8l1.4,0.8l3.5,2
	c0,0,2.6,2.4,4.5,4.5C117.9,78.4,118.4,81.1,118.7,83.1z"/>
<path class="st8" d="M118.9,83.1C118.9,83.1,118.9,83.1,118.9,83.1c0.3,1,0.3,2,0.2,2.9c-0.1,0-0.1,0-0.2,0.1
	c-1.2,0.4-2.4,0.6-3.7,0.5c-1.1-0.1-2.1-0.4-3.1-0.9c-0.1-0.1-0.1-0.1-0.2-0.2c-0.4-0.6-0.4-1.3-0.1-1.9h0.2c0.4,0,1.3,0.1,2.3,0.2
	c1.4-0.1,2.8-0.2,4.2-0.6L118.9,83.1z"/>
<path class="st7" d="M100.6,197c-0.2-0.8-0.2-1.7,0-2.5c0-0.2-0.1-0.4-0.1-0.7c-0.5-2.4-1.1-4.7-1.2-5.8c-0.3-2.4-0.3-12.2,0.6-21.9
	c0.6-6.4,1.7-12.8,3.3-19l0,0c0-0.2,0.1-0.4,0.1-0.6c1.1-5.1,0.7-13.5,0.2-20.6s3.7-7.5,5.1-11.9s0-16.3,0-16.3
	c-1.3-0.4-2.7-0.6-4-0.8l0,0c-3.7-0.5-8.7-0.6-8.9,2.8c-0.3,5.5-4.2,6.4-5,17s1.4,15.5,1.8,21.6s-1.1,14.6-1.4,20
	c-0.2,4.4,1,23.4,1.4,31c0.1,1.7,0.2,2.8,0.2,3.1c0,1.7-0.3,4.8,0.6,6.2c0.7,1.2,4.9,2.4,6.9,2c0.1-0.3,0.1-0.7,0.3-1l-0.1,0.2
	c0.1-0.2,0.2-0.5,0.2-0.7C100.5,198.4,100.5,197.7,100.6,197z"/>
<path d="M109.1,99c0,0,0.8,10.4,0,13.9s-3.9,6.6-4.5,8.2s-0.2,17.2-0.2,19.6c-0.2,3.3-0.8,6.6-1.7,9.9c-1.3,4.6-2,9.3-2.3,14
	c0,3.5-1.1,14.7-0.9,17.2c-1.1,1-2.5,1.6-4,1.5c-1.5,0.1-2.9-0.4-4.1-1.3c0,0-1.1-20.1-0.6-25.5s1.3-14,1.2-17.1s-2.1-9.6-2.5-16.2
	c-0.2-4.5,0.2-9,1.3-13.3L94.4,99c0,0,2.1-4.1,2.4-4.1l9.9,0.2L109.1,99z"/>
<path class="st7" d="M126,188c0.5,2.2-6.3,2.5-8.2,1.6s-3.7-3-5-3.8s-2.5-0.7-2.8-1.7c-0.1-0.3-0.2-1.1-0.4-2.2
	c-0.7-3.4-1.2-6.9-1.5-10.4c-0.3-4.6-2.2-14.9-2-20.3c0-0.8,0-1.6,0-2.4c-0.1-4.1-0.7-8.9-0.9-11.7c-0.3-3.4-2.7-16.7-2.7-16.7
	s-2.7-15.4-3.2-19c-0.2-1.2,0.8-2,2.1-2.5c2.1-0.7,4.3-1,6.5-0.9c7.3,21.4,6.9,34,7.6,41c0.7,6.2-0.6,10.4-0.5,17.4
	s-0.1,16.9,0.6,20.4c0.5,2.4,4.8,5.8,7.7,8.5C124.7,186.2,125.8,187.3,126,188z"/>
<path class="st9" d="M109,97.3c0,0,3.4,11.8,5,19.9s3.5,23.1,2.4,27.7s-0.2,29-0.2,29s-3.8,4-8,1l-5.3-43.7l-7.2-29.7l3.4-5.9
	L109,97.3z"/>
<path d="M128.6,189.3c0.6,2.2-8.8,1.2-10.8,0.3s-3.7-3-5-3.8s-2.5-0.7-2.8-1.7c-0.1-0.3-0.2-1.1-0.4-2.2c2.7,1.5,9.3,5.1,11.5,4.5
	c1.4-0.4,2.1-0.9,2.3-1.5C124.7,186.2,128.4,188.5,128.6,189.3z"/>
<path d="M101.2,203.4c-1,1.6-7.2-3.4-8-4.8s-0.6-4.5-0.6-6.2c0-0.3,0-1.4-0.2-3.1c0.2,0.7,0.3,1.4,0.4,2.2c0.5,3.2,0.8,4.5,4.8,5
	c1.8,0.2,2.5-1.1,2.8-2.6C101,196.5,101.7,202.6,101.2,203.4z"/>
<path class="st6" d="M110.8,61.4c0,0,5-0.3,5,4.3s3.3,10.1,1.2,12.8c-1.8,2.3-3.3,8.2-4.4,12.2c-1,3.8,1.4,8.5-2,10.3
	s-11.3,1.1-16.2-3.8c0,0,1.3-10.4-1.3-13S85,74.1,89.5,69.6S93.9,61.4,110.8,61.4z"/>
<path class="st7" d="M104.1,64.5L104.1,64.5c1.2-0.5,2.2-1.8,1.8-3c-0.7-2.1-0.4-6.3-0.4-6.3l-4.4,0.3c-0.2,2.1-0.6,4.2-1.2,6.2
	C99.1,63.7,102.1,65.4,104.1,64.5z"/>
<path class="st7" d="M110,59c-0.4,1-1.1,1.8-2.1,2.3c-0.1,0.1-0.2,0.1-0.4,0.2l-0.5,0.1c-0.2,0-0.3,0.1-0.5,0.1
	c-1.3,0.2-2.6,0-3.8-0.6c-1.2-0.5-2.3-1.3-3.3-2.2c-0.8-0.8-1.5-1.6-2.2-2.5l0,0L96.9,56l-1-1.2c-1.1-1.9-2-3.9-2.6-6
	c-0.5-2.2,0.4-6.7,2.1-7.1l1.7-0.5c0-0.1,0-0.2,0.1-0.3c0.1-0.3,0.4-0.6,0.7-0.9l0.2-0.2c0.1,0,0.1-0.1,0.2-0.1
	c0.1-0.1,0.2-0.1,0.3-0.2l0.3-0.1c0.4-0.2,0.7-0.2,1.1-0.3l0,0c1.3,0,2.5,0.5,3.5,1.2c1.4,0.9,3,1.7,4.4,2.6
	c0.9,0.5,1.7,1.1,2.3,1.8c0.1,0.1,0.2,0.2,0.2,0.4c0,0.1,0.1,0.1,0.1,0.2l-0.1,0l-0.3,12.3c0,0.3,0,0.6-0.1,0.8L110,59z"/>
<path class="st10" d="M98.8,52.8c1.5,2-0.6,2.6-0.6,4.2c0,0.5,1.5,1.3,1.3,1.8c-0.7,1.3-1.9,2.2-3.4,2.5c-0.5,0.1-1,0.2-1.5,0.2
	c-2.9,0-5.2-1.9-5.2-4.2c0-0.4,0.1-0.8,0.2-1.1c0.3-1,0.5-2.1,0.4-3.2c-0.3-5,1.2-3.4,2.7-8.2c1.8-5.6,6-6.4,9.2-5.5
	c2.4,0.8,4.7,1.9,6.7,3.4c-1.6,3.7-4.4,6.6-7.9,8.4L98.8,52.8z"/>
<path class="st10" d="M99.2,40.7c2.4-1.2,5.2-1.2,7.5,0.1c1.8,0.8,3.2,2.3,3.9,4.1c0.1,1.4,0.1,2.8-0.2,4.2
	c-0.1-1.2-0.4-2.4-0.6-3.6c-0.3-0.8-0.6-0.9-0.6-0.9c-1.5-1.1-3.1-2.1-4.8-2.9C101.1,40.2,99.2,40.7,99.2,40.7z"/>
<ellipse transform="matrix(0.8943 -0.4474 0.4474 0.8943 -13.5314 49.5989)" class="st7" cx="98.2" cy="53.4" rx="1.4" ry="1.9"/>
<path class="st5" d="M91.3,73.7c3.9-1.1,5.1,2.7,6.6,8.6s2,8.3,2,8.3l10.3,9.3c0.8-0.1,1.5-0.1,2.3,0c1.2,0.2,3.6,1.4,3.7,2.1
	s-2.3-0.3-2.5,0.2s1.7,2.5,2.1,2.8s1.8,0.2,2,0.7s-0.5,1.2-2.8,1.1s-3.5-0.2-4.6-0.9s-3.4-4-3.4-4s-11.8-5.6-12.4-7s-3.1-9-4.3-13.4
	S89.3,74.3,91.3,73.7z"/>
<path class="st6" d="M99,84.6c0.8,2.5-6,4.2-7.6,3.1c0,0-2.4-8.8-3.2-11.9s0.7-5.9,3.1-5.9s4.3,2,5.3,5.3S99,84.6,99,84.6z"/>
<path class="st11" d="M293.8,54.3c-4.7-2.4-7.2,2.3-10.5,9.4s-4.6,10.1-4.6,10.1l-15.4,9.4c-0.9-0.3-1.9-0.5-2.9-0.6
	c-1.5,0-4.9,0.9-5.2,1.8s3,0.2,3.1,0.8s-2.7,2.8-3.4,3.1s-2.4-0.2-2.7,0.5s0.4,1.6,3.4,2.1c3,0.5,4.5,0.6,6.1,0s5.4-4.2,5.4-4.2
	s16.5-4.3,17.7-6s6.2-10.8,8.8-16.1S296.3,55.6,293.8,54.3z"/>
<path class="st6" d="M281.3,66.5c-1.6,3,6.7,6.8,9,5.8c0,0,5.2-10.7,7-14.4s0.5-7.7-2.5-8.3s-5.9,1.5-8.1,5.5S281.3,66.5,281.3,66.5
	z"/>
<path d="M310.1,50.2c-1.9-1.1-4.1-1.8-6.1-2.7c-1.8-0.8-2.4-0.4-4.3-0.8c-2.3-0.3-4.6,0.1-6.6,1.2c-1.7,0.9-3.8,2.7-4.5,4.5
	c-1.4,3.4-1.3,11.7-1.8,20.5s-0.3,34.2-0.3,34.2c2.8,3.6,10.2,4.9,10.2,4.9s11.1,2.6,20.5-4.2c0,0,2.1-30.3,2.1-38.8
	C319.4,54.3,310.1,50.2,310.1,50.2z"/>
<path class="st11" d="M307.5,42.9c-0.6,1.5,0.4,5.4-0.1,6.8s-4.4,5-8,3.7s-3.5-3.7-3.2-7.1S307.5,42.9,307.5,42.9z"/>
<path class="st11" d="M294.4,46.1c0.4,1,1.1,1.9,2.1,2.4l0.4,0.2c0.1,0.1,0.3,0.1,0.5,0.1c0.2,0.1,0.3,0.1,0.5,0.1
	c1.3,0.2,2.7,0,3.9-0.6c1.2-0.6,2.4-1.3,3.4-2.3c0.8-0.8,1.5-1.6,2.2-2.5l0,0l0.4-0.5c0.6-0.7,1-1.3,1-1.3c1.1-1.9,2-4,2.7-6.1
	c0.5-2.2-0.4-6.8-2.1-7.2l-1.7-0.5c0-0.1,0-0.2-0.1-0.3c-0.1-0.3-0.4-0.7-0.7-0.9l-0.2-0.2c-0.1,0-0.1-0.1-0.2-0.1
	c-0.1-0.1-0.2-0.1-0.4-0.2l-0.4-0.1c-0.4-0.2-0.8-0.3-1.2-0.3l0,0c-1.3,0-2.5,0.5-3.5,1.3c-1.5,0.9-3,1.7-4.5,2.6
	c-0.9,0.5-1.7,1.1-2.4,1.8c-0.1,0.1-0.2,0.2-0.2,0.4c0,0.1-0.1,0.1-0.1,0.2l0.1,0l0.3,12.5c0,0.3,0,0.6,0.1,0.9L294.4,46.1z"/>
<path class="st12" d="M295.9,27.2l2-1c2.1-1.2,4.6-1.8,7-1.6l0,0c0.3,0,0.6,0.1,0.9,0.2l0.4,0.1c0.1,0,0.2,0.1,0.4,0.1l0.4,0.2
	l0.2,0.1c0.1,0.1,0.2,0.1,0.2,0.2c0.3,0.2,0.6,0.6,0.7,0.9c0,0.1,0.1,0.2,0.1,0.3l1.8,0.5c1.8,0.5,2.7,5.2,2.2,7.5
	c-0.7,2.2-1.6,4.3-2.8,6.3c0,0-0.4,0.6-1,1.3c1-1.8,1.4-5-0.3-4.5c-1.1,0.3-1.8,1.3-1.8,2.4h-0.8c0,0-0.1-2.3,0-3s-1.1-1.8-1-2.3
	c0.2-0.8,0.5-1.6,0.9-2.4c0.1-0.5,0.2-0.8-0.3-0.8c-0.5,0.2-1.1,0.4-1.6,0.6l-0.7,0.2c-1.5,0.5-3,0.8-4.5,0.7c-3.9,0-7-1.4-7-3.1
	C291.1,28.8,293.1,27.6,295.9,27.2z"/>
<path class="st12" d="M294,42.2c0,0,0.4,2.1,2,2.6c0.3-0.8,1.2-1.2,2-1c0.3,0.1,0.6,0.3,0.8,0.6c1.7,1.8,2.2,2.1,3.1,1.2
	c1.3-1.8,2.4-3.6,3.5-5.5l1.2-2.2c0.2,1.3,0.1,2.7-0.2,4c-0.6,1.7-0.8,2.2-0.6,3.7s1,1.3-0.7,2.4s-9.4,4-11.7-2.8
	C293,44.1,293.3,43,294,42.2z"/>
<polygon class="st13" points="317.4,138.1 229.9,104.6 86.7,159.6 31.5,138.1 229.6,61 374.6,117.5 "/>
<polygon class="st14" points="317.4,145.1 317.4,138.1 229.9,104.6 229.9,111.6 "/>
<polygon class="st15" points="374.6,117.4 374.6,124.4 317.4,144.9 317.4,137.9 "/>
<polygon class="st13" points="298.7,110.6 238.3,89.2 261.6,80.1 321.9,101.6 "/>
<polygon class="st14" points="298.6,112.1 298.6,110.6 238.3,89.2 238.3,90.7 "/>
<polygon class="st15" points="321.9,101.6 321.9,103.1 298.6,112.1 298.6,110.6 "/>
<path class="st11" d="M314.1,62.9c-4.7-2.4-7.2,2.3-10.5,9.4s-4.6,10.1-4.6,10.1l-15.4,9.4c-1-0.4-2-0.5-3-0.6
	c-1.5,0-4.9,0.9-5.2,1.8s3,0.2,3.1,0.8s-2.7,2.7-3.4,3.1s-2.4-0.2-2.7,0.5s0.4,1.6,3.4,2.1s4.5,0.6,6.1,0s5.3-4.2,5.3-4.2
	s16.5-4.3,17.7-6s6.2-10.8,8.8-16.1S316.6,64.2,314.1,62.9z"/>
<path class="st6" d="M301.7,75.1c-1.6,3.1,6.7,6.8,9,5.8c0,0,5.2-10.7,7-14.4s0.5-7.7-2.5-8.3s-5.9,1.5-8.1,5.5
	S301.7,75.1,301.7,75.1z"/>
<polygon class="st13" points="298.9,64.1 240.9,43.4 242.8,42.7 300,63.1 "/>
<polygon class="st14" points="298.1,107.6 298.9,64.1 240.9,43.4 240.9,87.2 "/>
<path class="st15" d="M300,63.1v43.3l-1.9,1.3V65c0-0.7,0.4-1.4,1.1-1.6L300,63.1z"/>
<polygon class="st13" points="268.4,82 258.2,78.3 259.5,77.8 269.7,81.5 "/>
<polygon class="st14" points="265,107.6 268.4,82 258.2,78.3 254.9,103.9 "/>
<polygon class="st15" points="269.7,81.5 266.3,106.8 265,107.6 268.4,82 "/>
<polygon class="st16" points="148,27.9 152.6,26.3 154.1,26.9 148.9,28.7 "/>
<polygon class="st11" points="154.1,55.8 154.1,26.9 148.9,28.7 149.6,61.7 "/>
<path class="st17" d="M148.6,28.1c0.6,0.2,0.9,0.8,0.9,1.4v32.2l-1.6-1.1V27.9L148.6,28.1z"/>
<polygon class="st16" points="148,25.4 195.7,8.4 197.2,9 148.9,26.3 "/>
<polygon class="st11" points="197.2,9 197.2,40.4 188.8,43.5 176.6,47.8 172.8,49.2 169.4,50.4 167.8,50.9 165.2,51.9 149.6,57.4
	148.9,26.3 149.2,26.1 "/>
<path class="st17" d="M148.6,25.7c0.6,0.2,0.9,0.8,0.9,1.4v30.4l-1.6-1.1V25.4L148.6,25.7z"/>
<path class="st6" d="M188.8,43.5l-12.2,4.4l-3.8,1.4l-3.4,1.2l-1.6,0.6l-2.6,0.9c1-7.3,2.4-14.4,4.2-17.7h0.6c0.9,0,2.7,0,4.7,0.2
	c1.9,0.1,3.7,0.5,5.5,1c0.5,0.2,0.9,0.4,1.3,0.8C181.4,36.1,187,40.1,188.8,43.5z"/>
<path class="st18" d="M180.4,39.7l-3.8,8.1l-3.8,1.4l-3.4,1.2l-1.6,0.6v-2.8c0,0,3.6-11.1,5.2-11.8s6.7-0.5,7.1-0.5l0,0L180.4,39.7z
	"/>
<path class="st7" d="M175.6,23.8l4.5,1.1l0.8,4.7l-1.1,2.4l-6.7,2.8c-1.1,0.3-2.2,0.1-3.1-0.6c-1.3-1.2-0.4-10-0.4-10L175.6,23.8z"
	/>
<path class="st7" d="M173.1,34.9c0,0-0.5,4.8,0.4,4.8s5.6-2.2,6.3-2.8s0-4.8,0-4.8L173.1,34.9z"/>
<path class="st6" d="M176.6,31.1L176.6,31.1c0.3,0.3,0.9,0.3,1.2,0c0.1-0.1,0.1-0.2,0.2-0.3c0.3-0.7,0.6-1.3,1-1.9
	c0.9-1.4,0.9,3.2,0.9,3.2c0.9,0,2.5-2.6,3.1-7.6s-5.3-5.5-7.8-5.1s-8.2,4.5-5.5,4.9c2.6,0.4,5.2,1,7.8,1.7L176.6,31.1z"/>
<polygon class="st6" points="173.4,39.6 173.4,47.1 172.8,49.2 169.4,50.4 169.6,45.4 "/>
<polygon class="st19" points="82.3,164.7 86.4,163.4 90.7,165 86.7,166.4 "/>
<polygon class="st15" points="90.7,232.5 90.7,164.7 86.7,165.4 86.7,234 "/>
<polygon class="st14" points="86.7,166.4 86.7,234 82.3,232.3 82.3,164.7 "/>
<polygon class="st19" points="31.5,144.9 35.6,143.7 39.9,145.2 35.9,146.7 "/>
<polygon class="st15" points="39.9,212.7 39.9,145.2 35.9,146.7 35.9,214.2 "/>
<polygon class="st14" points="35.9,146.7 35.9,214.2 31.5,212.5 31.5,144.9 "/>
<polygon class="st15" points="230,111.6 230,104.6 86.7,159.6 86.7,166.6 "/>
<polygon class="st14" points="86.7,159.4 86.7,166.5 31.5,145 31.5,137.9 "/>
<polygon class="st13" points="82.1,123.1 142.5,101.7 165.7,110.7 105.4,132.2 "/>
<polygon class="st14" points="165.7,112.2 165.7,110.7 105.4,132.2 105.4,133.6 "/>
<polygon class="st15" points="105.4,132.2 105.4,133.6 82.1,124.6 82.1,123.1 "/>
<polygon class="st13" points="104,84.6 161.3,64.2 163.1,64.9 105.2,85.6 "/>
<polygon class="st14" points="163.1,108.7 163.1,64.9 105.2,85.6 105.9,129.1 "/>
<path class="st15" d="M104.8,84.9c0.7,0.3,1.1,0.9,1.1,1.6v42.6l-1.9-1.3V84.6L104.8,84.9z"/>
<polygon class="st13" points="134.4,103.1 144.6,99.4 145.8,99.9 135.6,103.6 "/>
<polygon class="st14" points="149.2,125.4 145.8,99.9 135.6,103.6 139,129.1 "/>
<polygon class="st15" points="135.6,103.6 139,129.1 137.7,128.3 134.4,103.1 "/>
<polygon class="st5" points="191.3,101.7 170.6,94.3 193.8,85.3 214.5,92.7 "/>
<polygon class="st14" points="191.2,103.2 191.2,101.7 170.6,94.3 170.6,95.8 "/>
<polygon class="st15" points="214.5,92.7 214.5,94.1 191.2,103.2 191.2,101.7 "/>
<polygon class="st5" points="201,96.8 181,87.7 204.9,80.7 224.9,89.8 "/>
<polygon class="st14" points="200.8,98.3 200.9,96.8 181,87.7 180.8,89.2 "/>
<polygon class="st15" points="224.9,89.8 224.8,91.2 200.8,98.3 200.9,96.8 "/>
<polygon class="st5" points="205.3,96.6 186.4,85.4 210.9,81 229.8,92.1 "/>
<polygon class="st14" points="205,98.1 205.2,96.6 186.4,85.4 186.1,86.9 "/>
<polygon class="st15" points="229.8,92.1 229.6,93.6 205,98.1 205.2,96.6 "/>
</svg>
