<?xml version="1.0" encoding="utf-8"?>
<!-- Generator: Adobe Illustrator 21.1.0, SVG Export Plug-In . SVG Version: 6.00 Build 0)  -->
<svg version="1.1" id="Layer_1" xmlns="http://www.w3.org/2000/svg" xmlns:xlink="http://www.w3.org/1999/xlink" x="0px" y="0px"
	 viewBox="0 0 380 250" style="enable-background:new 0 0 380 250;" xml:space="preserve" preserveAspectRatio="xMinYMax">
<style type="text/css">
	.st0{fill:#21C5A1;}
	.st1{clip-path:url(#SVGID_2_);}
	.st2{fill:#17987C;}
	.st3{fill:#43E9C7;}
	.st4{fill:#DDBA2A;}
	.st5{fill:#EDF6F9;}
	.st6{fill:#163557;}
	.st7{fill:#029EFF;}
	.st8{fill:#068FFF;}
	.st9{fill:#02D8B4;}
	.st10{fill:#D9E4E8;}
	.st11{fill:#153456;}
	.st12{fill:#ED584F;}
	.st13{fill:#FFD55F;}
	.st14{opacity:0.85;}
	.st15{fill:#F3F3F7;}
	.st16{fill:#0180CC;}
	.st17{fill:#004167;}
	.st18{fill:#F1F1F6;}
	.st19{fill:#FFED0D;}
	.st20{fill:#C6C6C6;}
	.st21{fill:#FFFDFD;}
	.st22{fill:#06D8B4;}
</style>
<title>private</title>
<polygon class="st0" points="-0.5,161.9 57,140.9 123.1,165.1 380,76.8 380,250 0,250 "/>
<g>
	<defs>
		<rect id="SVGID_1_" width="380" height="250"/>
	</defs>
	<clipPath id="SVGID_2_">
		<use xlink:href="#SVGID_1_"  style="overflow:visible;"/>
	</clipPath>
	<g class="st1">
		<rect x="190.7" y="223.2" class="st2" width="108.1" height="26.8"/>
		<polygon class="st2" points="353.7,271.6 353.7,240.4 176,176.1 176,207.3 		"/>
		<polygon class="st0" points="531.3,207.3 531.3,176.1 353.7,240.4 353.7,271.6 		"/>
		<polygon class="st3" points="353.7,240.4 531.3,176.1 353.7,111.7 176,176.1 		"/>
		<polygon class="st4" points="67.1,296.3 67.1,265.2 -110.5,200.8 -110.5,232 		"/>
		<polygon class="st0" points="244.7,232 244.7,200.8 67.1,265.2 67.1,296.3 		"/>
		<polygon class="st3" points="67.1,265.1 244.7,200.8 67.1,136.4 -110.5,200.8 		"/>
		<polygon class="st2" points="10.3,317 10.3,285.9 -167.4,221.5 -167.4,252.7 		"/>
		<polygon class="st0" points="187.9,252.7 187.9,221.5 10.3,285.9 10.3,317 		"/>
		<polygon class="st3" points="10.3,285.9 187.9,221.5 10.2,157.1 -167.4,221.5 		"/>
	</g>
</g>
<path class="st5" d="M288.3,179.6c0,0-9,4.2-7.8,6.9s18.3,0.7,19.3-6.9C296.3,177.3,291.8,177.3,288.3,179.6z"/>
<path class="st5" d="M272.1,168.8c0,0-9,4.2-7.8,6.9s18.3,0.7,19.3-6.9C280.1,166.6,275.7,166.6,272.1,168.8z"/>
<path class="st6" d="M301,94.1c0,0,0.3,20.6-0.8,29.5c-1.5,11.6,0,55.9,0,55.9s-7.9,5.2-9.5,0s-3.7-63.4-3.7-63.4
	s-3.3,51.8-3.3,52.6s-9,4.9-9.8,0.8s-1.8-73,0-78.3S301,94.1,301,94.1z"/>
<path class="st7" d="M269.2,94.2l-0.9,7c0.3,1.2,0.4,2.5,0.5,3.7c0,1.5-1.5,2.3-2.8,2.3c-1,0-3.9-0.7-3.1-3.8s2.2-9.2,2.2-9.2
	L269.2,94.2z"/>
<path class="st5" d="M302.1,86.8c0,0,0,9.2,0,15.8c0,0-21.9,6.3-29.1-3.4l0.5-18.1l-5,20.3h-5.2c0,0,2-27.8,6.6-42.1
	c1-3.1,3.5-5.4,6.7-6c1.7-0.3,3.3-0.8,4-1.5c1.6-1.6,12.6,0,12.6,0s10.2,6,11.9,7.6c0,0,7,9.7,7.4,14.2"/>
<polygon class="st8" points="291.9,42.8 292.5,52.2 284.5,55.7 281.8,53.2 281.4,47.2 "/>
<path class="st9" d="M294.3,51.7l0.6,1.8c0.2,0.7-0.1,1.4-0.7,1.7L286,60l-2.4-4.3l-2.3,3.7l-3.3-5.4c-0.2-0.4-0.1-0.8,0.3-1
	c0,0,0,0,0,0l2-1.2c0.3-0.2,0.8-0.1,1,0.2l2.3,3.2l8.9-4.2c0.7-0.3,1.5-0.1,1.8,0.6C294.3,51.5,294.3,51.6,294.3,51.7z"/>
<path class="st10" d="M302.1,71.4c0,0.2,0,0.4,0,0.5c0.1,0.9,0.2,1.7,0.2,2.4s2.2,2.9,4.5,4.8c0.8,0.7,1.6,1.3,2.3,1.8
	c0.6,0.5,1.3,0.9,2,1.3l0,0c0.6,0.3,1,0.4,1.1,0.3c0.8-2.7,0.7-6.9,0.1-11.2H302.1z"/>
<rect x="283.5" y="63.6" class="st9" width="18.6" height="24.2"/>
<path class="st7" d="M308.6,77l-10.8,0.3v5c0,0,12,2.3,12.8,1.8s0.9-2.3,0.9-2.3L308.6,77z"/>
<path class="st7" d="M304,78.2l-7.7-1.4c-1.2-0.7-2.5-1.3-3.8-1.8c-1.5-0.5-4.5,1.2-4,2.2s-0.1,4.4,3.5,4.7l10.6,0.9L304,78.2z"/>
<path class="st7" d="M278.5,34.9c0,0-1.6,11.8,1.4,14.7c0,0,4.2,1.8,7.2-1.2s5.7-5.2,5.7-5.2v-9L279.6,33L278.5,34.9z"/>
<path class="st11" d="M278.5,34.9c0,0,2.3,3,10.4,1.7c0,0-1.8,5.4-1.4,5.8c0.2,0.2,0.4,0.4,0.7,0.5c0.3,0.2,0.7,0.1,0.8-0.2
	c0,0,0.1-0.1,0.1-0.2c0.4-1.5,1.4-4.6,2.4-3.1c1.2,1.9,0,4.9,0,4.9c0.5-0.4,0.9-0.7,1.3-1.2c0.8-0.8,4.7-4,3.1-9s-4.5-7-8.5-6
	S276.1,30.3,278.5,34.9z"/>
<path class="st11" d="M278.1,34.1c0,0-4.5-4-0.1-4.5s9-1.3,9.7-1.4L278.1,34.1z"/>
<path d="M319.8,190.6c0,0,6,5-5,10.4s-12.9,0.9-12.9,0.9S308.6,192.3,319.8,190.6z"/>
<path class="st12" d="M320.6,191.6c-1.5,3.4-4.4,5.9-7.9,7.1c-5.9,1.9-5.7,0.5-5.7,0.5l9.5-10L320.6,191.6z"/>
<path class="st12" d="M313.1,89.1c0,0-4.5,14-3.3,21.1s3.3,3.1,3.3,3.1l3.5-20.7L313.1,89.1z"/>
<path d="M349.1,176.3c0,0,7.6-1.6,5.1,10.3s-7.2,10.8-7.2,10.8S343.6,186.2,349.1,176.3z"/>
<path class="st12" d="M350.3,176.2c1.7,3.3,2,7.1,0.8,10.6c-2.1,5.8-3.1,4.8-3.1,4.8l-2.1-13.6L350.3,176.2z"/>
<path d="M331.5,100.7c0,0,11.4,18.9,8.6,27.5s-2.6,23.3-1.5,24.4s16.3,22.2,13,25.4s-7.2,10.2-26.1-19.6l-2.8-17.6v18.6
	c0,0,0.1,30.8-2.2,33.2c-1.2,1-2.6,1.8-4.2,2.2c-1.9,0.6-4-0.5-4.6-2.4c-0.1-0.2-0.1-0.4-0.1-0.6c-1.8-12.6-6.8-52.5-2.7-72
	c4.9-23.4,6.9-21.4,6.9-21.4L331.5,100.7z"/>
<path class="st13" d="M316.9,68.8c0,0-4.5-0.3-4.5,3.8s-5,9-3.1,11.4c2.5,3.2,5,14.4,5,14.4s8.5,11,17.1,2.3c0,0-1.1-9.3,1.1-11.6
	s7.3-9,3.3-13S332,68.8,316.9,68.8z"/>
<polygon class="st11" points="327.6,112.2 347.8,108.6 343.3,90.2 325.6,93.4 "/>
<path class="st12" d="M337.1,79.5c0,0,5.3,19.6,4.6,22.8s-13.1,11.5-13.1,11.5l-1.6-2.3l10.1-10.6l-5.8-21.2L337.1,79.5z"/>
<path class="st13" d="M337.4,79.8c0,0-1.3,2.8-6.1,0.6s0-3.4,0-3.4S337.1,77,337.4,79.8z"/>
<path class="st11" d="M326.4,53.8c0.2,1.7,1.4,3.1,2.5,5.1c1.2,1.8,1.8,3.9,1.9,6c-0.1,2.8-2,5.2-1.6,8c0.4,2.4,1.9,4.4,4,5.6
	c-0.4-4.6,4.2-8,6.4-12c3.7-6.8,4.2-16-11.5-15.3c-0.4,0-0.7,0.1-1.1,0.2c-0.2,0.2-0.4,0.4-0.4,0.6
	C326.4,52.6,326.4,53.2,326.4,53.8z"/>
<path class="st12" d="M316.9,48v14.2c0,1.1,0.7,2.1,1.7,2.6c3.4,1.4,9.1,2,11.4-3.4v-7.1L316.9,48z"/>
<path class="st11" d="M315.9,48.8c-0.7,2.8-0.3,5,1,5.8v-3.3c1.6,2.5,6.3,2.8,10.2,2.6c2.2-0.1,0.5,3.4,1.1,4
	c2.2,1.9,0.4,5.4,0.4,5.4c2.2-0.9,4.4-3.2,4.8-9.8c0.3-5.1-1.1-7-6.2-9C324.1,43.2,317,44.5,315.9,48.8z"/>
<ellipse transform="matrix(0.2113 -0.9774 0.9774 0.2113 201.7346 368.9991)" class="st12" cx="329.5" cy="59.5" rx="2.4" ry="1.5"/>
<path class="st12" d="M322.9,71.6L322.9,71.6c-1.1-0.4-2-1.6-1.6-2.7c0.4-1.9,0.5-3.8,0.4-5.7l3.9,0.3c0.2,1.9,0.5,3.7,1.1,5.5
	C327.4,70.9,324.7,72.3,322.9,71.6z"/>
<g class="st14">
	<polygon class="st15" points="60,72.2 146.4,40.9 146.4,144.7 60,175.5 	"/>
	<polygon class="st15" points="151.9,38.9 239.4,7.2 239.4,111.7 151.9,142.8 	"/>
	<path class="st12" d="M114.3,69.2l-6,17.2c-1.9-0.1-3.7,0.3-5.5,0.9c-1.8,0.7-3.5,1.6-5.1,2.7l-5.9-12.8
		C99.2,71.8,106.9,69,114.3,69.2z"/>
	<path class="st13" d="M97.8,90.1c-1.7,1.2-3.2,2.7-4.6,4.3l-10.8-7.8c2.7-3.5,5.9-6.6,9.5-9.3L97.8,90.1z"/>
	<path class="st13" d="M93.2,94.4c-2.6,3.1-4.4,6.9-4.9,11l-15.7,4.2c0.8-8.1,3.9-15.6,9.8-23L93.2,94.4z"/>
	<path class="st9" d="M95.2,117.1l-8.2,16.1c-10.2-2.5-15.6-11.4-14.5-23.6l15.7-4.2c-0.1,0.6-0.1,1.1-0.1,1.7
		C88.2,112.4,91,116,95.2,117.1z"/>
	<path class="st16" d="M119.2,121.7c-10.2,9.8-21.9,14-32.1,11.5l8.2-16.1c2.5,0.5,5.2,0.3,7.6-0.6c3-1.1,5.8-2.9,8-5.2L119.2,121.7
		z"/>
	<path class="st17" d="M131.7,102.4c-2.6,7.4-6.9,14-12.6,19.3l-8.3-10.5c4.1-4,6.7-9.5,6.7-14.6c0-6.1-3.8-10-9.2-10.2l6-17.2
		C130.1,69.6,137.9,84.5,131.7,102.4z"/>
	<polygon class="st17" points="68.6,156.1 74.9,153.8 74.9,157.5 68.6,159.7 	"/>
	<polygon class="st18" points="76.3,154.1 83.1,151.7 83.1,153.7 76.3,156.1 	"/>
	<polygon class="st16" points="86.7,149.6 93.1,147.3 93.1,151 86.7,153.3 	"/>
	<polygon class="st18" points="94.5,147.6 101.3,145.2 101.3,147.2 94.5,149.6 	"/>
	<polygon class="st19" points="68.6,161.8 74.9,159.5 74.9,163.2 68.6,165.5 	"/>
	<polygon class="st18" points="76.3,159.9 83.1,157.5 83.1,159.5 76.3,161.9 	"/>
	<polygon class="st12" points="86.7,155.3 93.1,153.1 93.1,156.8 86.7,159 	"/>
	<polygon class="st18" points="94.5,153.4 101.3,151 101.3,153 94.5,155.4 	"/>
	<polygon class="st9" points="104.9,143.1 111.3,140.8 111.3,144.5 104.9,146.8 	"/>
	<polygon class="st18" points="112.7,141.1 119.5,138.7 119.5,140.7 112.7,143.1 	"/>
	<polygon class="st19" points="123.1,136.6 129.6,134.3 129.6,138 123.1,140.3 	"/>
	<polygon class="st18" points="131,134.6 137.8,132.2 137.8,134.2 131,136.6 	"/>
	<polygon class="st17" points="163,122.4 169.4,120.1 169.4,123.8 163,126.1 	"/>
	<polygon class="st18" points="170.9,120.4 177.7,118 177.7,120 170.9,122.4 	"/>
	<polygon class="st16" points="181.4,115.8 187.8,113.5 187.8,117.2 181.4,119.5 	"/>
	<polygon class="st18" points="189.3,113.8 196.1,111.4 196.1,113.4 189.3,115.8 	"/>
	<polygon class="st19" points="163,128.1 169.4,125.8 169.4,129.6 163,131.9 	"/>
	<polygon class="st18" points="170.9,126.2 177.7,123.8 177.7,125.8 170.9,128.2 	"/>
	<polygon class="st9" points="199.8,109.2 206.3,106.9 206.3,110.7 199.8,113 	"/>
	<polygon class="st18" points="207.7,107.3 214.6,104.8 214.6,106.8 207.7,109.3 	"/>
	<polygon class="st19" points="218.3,102.7 224.8,100.3 224.8,104.1 218.3,106.4 	"/>
	<polygon class="st18" points="226.2,100.7 233.1,98.2 233.1,100.2 226.2,102.7 	"/>
	<polygon class="st20" points="63.3,74.5 90.1,64.8 90.1,68.3 63.3,78 	"/>
	<polygon class="st20" points="157.5,40.4 184.6,30.6 184.6,34.1 157.5,43.9 	"/>
	<path class="st13" d="M198,36.8V53l0,0c-0.7,0.2-1.4,0.5-2,0.9l-2.4-15.2C195,38,196.5,37.4,198,36.8z"/>
	<path class="st13" d="M195.9,53.8c-4.7,2.4-8.5,6.3-10.8,11l-14.1-3c4.7-10,12.7-18.2,22.6-23.2L195.9,53.8z"/>
	<path class="st9" d="M186,80.4l-13.2,14.1c-7.3-7.3-8-19.8-1.8-32.7l14.1,2.9c-1.3,2.5-1.9,5.3-2,8.1C183,75.7,184.1,78.4,186,80.4
		z"/>
	<path class="st16" d="M210.6,91c-13.7,10.9-29.1,12.3-37.8,3.6L186,80.4c2.7,2.7,7.1,3.5,12,1.7c2.2-0.8,4.2-2,6-3.5L210.6,91z"/>
	<path class="st17" d="M229.2,56.3c0,12.5-6.9,25.4-18.5,34.7L204,78.7c5.2-4.1,8.8-10.5,8.8-16.5c0-8-6.6-12.2-14.8-9.3V36.8
		C215.2,30.6,229.2,39.3,229.2,56.3z"/>
</g>
<path class="st21" d="M49.8,213.8c0,0,8.3-2.4,10.1-1.5s0.4,4.4-3.5,6.6s-6,3.6-8,4.1s-5.3,0.6-5.7-1.4c-0.5-1.8-0.3-3.6,0.3-5.4
	C43.6,215.2,49.8,213.8,49.8,213.8z"/>
<path class="st11" d="M43.1,150.4c-0.3,4.4,1.1,15.9,0.8,21.8s-1.1,6.4-1.5,15s0.5,29.2,1.7,30.4s6.8,1.7,6.9-2.3s1.2-29.1,1.9-31.5
	c1.3-4.1,2.1-8.3,2.1-12.6c0.1-4.8,0.5-9.5,1.1-14.3c0,0-2.3-6.4-7.1-6.9S43.1,150.4,43.1,150.4z"/>
<path class="st21" d="M61.7,221c0,0,9.3-2.7,11.3-1.7s0.5,4.9-3.9,7.4s-6.7,4-9,4.6s-5.9,0.7-6.4-1.6s-0.3-5,0.3-6
	S61.7,221,61.7,221z"/>
<path class="st11" d="M68.7,156.1c-0.4,9.4-2.3,27.2-2.8,31s-2.8,11.8-3.3,21s-0.4,14.6-1.6,16.3s-4.1,1.9-5.9,0.7s-2.5-22-2.5-29.2
	s1.7-11.1,1.6-16.2s-0.8-22.8-0.8-22.8s4-3.5,8-3.7S68.7,156.1,68.7,156.1z"/>
<path class="st22" d="M71.9,118c1-5.8-2.2-9-9.2-13.1c-2.9-1.7-13.7-9.1-19-2.5s0.3,21.4,0,29.9s-1.6,19.4-1.6,19.4
	s2.7,5.5,12.5,6.4s16-1.8,16-1.8S69.1,135,71.9,118z"/>
<path class="st21" d="M51.8,98.6c0,0-0.1,2.5,0,3s2.7,2.3,5.3,2.5c1.3,0.2,2.7,0.1,4-0.3v-3.4c0,0,3.9,0.2,4.4-0.8s1.5-6.1,1.1-7.2
	c-0.4-0.8-0.7-1.7-0.8-2.6c0.2-1.1,0.3-2.2,0.3-3.3c-0.3-1-0.7-2-1.2-2.9c0,0,1.8-2.2-3.1-3.7s-11.4,0.1-12.2,1.6
	c-0.5,0.8-0.7,1.6-0.7,2.5c0,0-2.3,2.9-1.7,5.1c1.1,2.7,2.3,5.4,3.7,8L51.8,98.6z"/>
<path class="st13" d="M61.8,79.9c-4.9-1.5-11.4,0.1-12.2,1.6c-0.5,0.8-0.7,1.6-0.7,2.5c0,0-2.3,2.9-1.7,5.1c1.1,2.7,2.3,5.4,3.7,8
	l0.9,1.5c0,0,5.4-0.9,6-1.6s1.7-3.8,2.4-3.5S61,96,61,96h0.8c0.1-1.1,0.1-2.1,0-3.2c-0.1-0.6,1-1.7,1.1-2.5c0-1.3-0.2-2.5-0.4-3.8
	c0-0.5,2.4-2.8,2.4-2.8S66.7,81.4,61.8,79.9z"/>
<rect x="53.8" y="129.7" transform="matrix(0.9827 -0.1853 0.1853 0.9827 -24.571 14.5349)" class="st12" width="23.4" height="18"/>
<path class="st21" d="M78.4,159.2c-0.1-0.7-2.4-5.9-2.4-5.9l-3.7-18c-0.3-1-0.7-2-1.4-2.9c1.1-6.2,0.8-17.4,0.8-17.4s-5.4-4.8-8.2,2
	c0,0-0.6,11.1-1,15.7l0,0v0.5c0,0.6-0.1,1-0.1,1.3c0,0.1,0,0.3,0,0.4l0,0v0.1c0,0.1,0.1,0.2,0.1,0.3c0,0,0,0,0,0.1l0,0
	c1.8,5,9,19,9,19.6c0,0-0.7,2.1-0.1,3s1.4,1.1,1.5,1.7s-0.3,2.9-0.2,3.6s2.3,3.3,3.3,2.7c0,0,1-2.1,1.3-2.7
	C78,162.1,78.3,160.7,78.4,159.2z"/>
<path class="st9" d="M72.7,124.7c-0.1-4.2-0.2-9.9-0.8-11.8c-0.9-3.1-7.3-5.3-9.4,1.7c-1,3.6-0.8,8.8,0,13.4
	C62.5,128,70.5,129.6,72.7,124.7z"/>
</svg>
