<svg
          class="icon-accelerate"
          xmlns="http://www.w3.org/2000/svg"
          width="33"
          height="33"
          viewBox="0 0 33 33"
          fill= "#37ceb8"
        >
          <g transform="translate(-165 -645)translate(165 645)">
            <polygon
              class="colorise"
              points="24.2 30.9 32.4 30.9 32.4 29.8 24.2 29.8"
            />
            <path
              class="colorise"
              d="M30.3 32.9C30.2 32.9 30.1 32.9 30 32.8 29.8 32.6 29.8 32.2 30 32L31.7 30.3 30 28.6C29.8 28.4 29.8 28.1 30 27.9 30.2 27.7 30.5 27.7 30.7 27.9L32.8 30C33 30.2 33 30.5 32.8 30.7L30.7 32.8C30.6 32.9 30.5 32.9 30.3 32.9"
            />
            <path
              class="colorise"
              d="M18.5 5.1C18.4 5.1 18.2 5.1 18.1 5L16.1 2.9C15.9 2.7 15.9 2.4 16.1 2.2L18.1 0.2C18.3-0.1 18.7-0.1 18.9 0.2 19.1 0.4 19.1 0.7 18.9 0.9L17.2 2.6 18.9 4.3C19.1 4.5 19.1 4.8 18.9 5 18.8 5.1 18.6 5.1 18.5 5.1"
            />
            <path
              class="colorise"
              d="M16.5 30.9L0 30.9 0 29.8 16.5 29.8C23.8 29.8 29.8 23.8 29.8 16.5 29.8 9.1 23.8 3.1 16.5 3.1L16.5 2.1C24.4 2.1 30.9 8.5 30.9 16.5 30.9 24.4 24.4 30.9 16.5 30.9"
            />
            <path d="M10.1 19L13.1 19 14.3 16.5 13.1 13.9 10.1 13.9 8.8 16.5 10.1 19ZM13.7 20.1L9.5 20.1 7.7 16.5 9.5 12.9 13.7 12.9 15.5 16.5 13.7 20.1Z" />
            <path d="M17.3 23.1L20.3 23.1 21.5 20.6 20.3 18 17.3 18 16 20.6 17.3 23.1ZM20.9 24.2L16.7 24.2 14.9 20.6 16.7 17 20.9 17 22.7 20.6 20.9 24.2Z" />
            <path d="M17.3 14.9L20.3 14.9 21.5 12.3 20.3 9.8 17.3 9.8 16 12.3 17.3 14.9ZM20.9 15.9L16.7 15.9 14.9 12.3 16.7 8.7 20.9 8.7 22.7 12.3 20.9 15.9Z" />
            <path d="M23.1 17.5C22.6 17.5 22.1 17 22.1 16.5 22.1 15.9 22.6 15.4 23.1 15.4 23.7 15.4 24.2 15.9 24.2 16.5 24.2 17 23.7 17.5 23.1 17.5" />
            <path d="M12.9 23.1C12.3 23.1 11.8 22.7 11.8 22.1 11.8 21.5 12.3 21.1 12.9 21.1 13.4 21.1 13.9 21.5 13.9 22.1 13.9 22.7 13.4 23.1 12.9 23.1" />
            <path d="M12.9 11.8C12.3 11.8 11.8 11.4 11.8 10.8 11.8 10.2 12.3 9.8 12.9 9.8 13.4 9.8 13.9 10.2 13.9 10.8 13.9 11.4 13.4 11.8 12.9 11.8" />
            <path
              class="colorise"
              d="M9 28.8C4.6 26.1 2.1 21.5 2.1 16.5 2.1 9.5 7 3.6 13.8 2.3L14 3.3C7.7 4.5 3.1 10 3.1 16.5 3.1 21.2 5.5 25.4 9.5 27.9L9 28.8Z"
            />
          </g>
        </svg>